<svg data-noselect="" viewBox="0 0 800 600" width="800" height="600" preserveAspectRatio="none" version="1.1" xmlns="http://www.w3.org/2000/svg" xmlns:xlink="http://www.w3.org/1999/xlink" class="svg-canvas"><defs></defs> <g id="background" data-noselect=""><rect fill="rgb(244, 195, 0)" width="800" height="600" data-noselect=""></rect> <!----></g> <g id="shape_gRHjfvzdNx" transform="translate(262.50903474286,119.84997346516) rotate(0,60,60) scale(1,1)" filter="" style="opacity: 1;"><g><rect fill="rgba(0,0,0,0)" width="280" height="280" x="-10" y="-10"></rect><svg version="1.1" id="图层_1" xmlns="http://www.w3.org/2000/svg" xmlns:xlink="http://www.w3.org/1999/xlink" x="0px" y="0px" width="260" height="260" viewBox="0 0 157.5 157.5" style="enable-background:new 0 0 157.5 157.5;" xml:space="preserve" class="style-removed" preserveAspectRatio="none" data-parent="shape_gRHjfvzdNx">

<circle cx="78.7" cy="78.7" r="77.4" fill="#FFFFFF" stroke="#000000" stroke-width="2.591" stroke-linejoin="round" stroke-miterlimit="10"></circle>
<g>
	<path d="M71.1,127.8L60.8,125c-19.8-5.3-31.5-25.6-26.2-45.4l5.2-19.3c5.3-19.8,25.6-31.5,45.4-26.2l10.3,2.7
		c19.8,5.3,31.5,25.6,26.2,45.4l-5.2,19.3C111.2,121.3,90.9,133.1,71.1,127.8z" fill="#FFDF22"></path>
	<line x1="119.2" y1="56.4" x2="100.6" y2="62.4" fill="none" stroke="#FFCC00" stroke-width="2.591" stroke-linecap="round" stroke-linejoin="round" stroke-miterlimit="10"></line>
	<line x1="122.3" y1="76.4" x2="106.4" y2="81.5" fill="none" stroke="#FFCC00" stroke-width="2.591" stroke-linecap="round" stroke-linejoin="round" stroke-miterlimit="10"></line>
	<line x1="116.1" y1="99.6" x2="90.7" y2="107.8" fill="none" stroke="#FFCC00" stroke-width="2.591" stroke-linecap="round" stroke-linejoin="round" stroke-miterlimit="10"></line>
	<line x1="107.9" y1="115.7" x2="80.4" y2="124.5" fill="none" stroke="#FFCC00" stroke-width="2.591" stroke-linecap="round" stroke-linejoin="round" stroke-miterlimit="10"></line>
	<line x1="106.6" y1="118.1" x2="100.8" y2="99.6" fill="none" stroke="#FFCC00" stroke-width="2.591" stroke-linecap="round" stroke-linejoin="round" stroke-miterlimit="10"></line>
	<line x1="118.5" y1="92.8" x2="106.6" y2="54.8" fill="none" stroke="#FFCC00" stroke-width="2.591" stroke-linecap="round" stroke-linejoin="round" stroke-miterlimit="10"></line>
	<line x1="90.2" y1="127.4" x2="82" y2="101.4" fill="none" stroke="#FFCC00" stroke-width="2.591" stroke-linecap="round" stroke-linejoin="round" stroke-miterlimit="10"></line>
	<path d="M62.2,75c0.5-2-0.7-4.1-2.7-4.6h0c-2-0.5-4.1,0.7-4.6,2.7" fill="none" stroke="#000000" stroke-width="2.591" stroke-linecap="round" stroke-linejoin="round" stroke-miterlimit="10"></path>
	<path d="M102.6,85.8c0.5-2-0.7-4.1-2.7-4.6h0c-2-0.5-4.1,0.7-4.6,2.7" fill="none" stroke="#000000" stroke-width="2.591" stroke-linecap="round" stroke-linejoin="round" stroke-miterlimit="10"></path>
	<g>
		<path d="M71,80.2l-0.1,0.3c-0.5,2,0.6,4,2.6,4.6h0c2,0.5,4-0.6,4.6-2.6l0.1-0.3" fill="none" stroke="#000000" stroke-width="2.591" stroke-linecap="round" stroke-linejoin="round" stroke-miterlimit="10"></path>
		<path d="M78.2,82.2l-0.1,0.3c-0.5,2,0.6,4,2.6,4.6h0c2,0.5,4-0.6,4.6-2.6l0.1-0.3" fill="none" stroke="#000000" stroke-width="2.591" stroke-linecap="round" stroke-linejoin="round" stroke-miterlimit="10"></path>
	</g>
	<path d="M57.9,84.6l-8.5-2.3c-1.8-0.5-2.9-2.4-2.4-4.2l0,0c0.5-1.8,2.4-2.9,4.2-2.4l8.5,2.3c1.8,0.5,2.9,2.4,2.4,4.2v0
		C61.6,84,59.7,85,57.9,84.6z" fill="#F9A085"></path>
	<path d="M102.8,96.6l-8.5-2.3c-1.8-0.5-2.9-2.4-2.4-4.2v0c0.5-1.8,2.4-2.9,4.2-2.4l8.5,2.3c1.8,0.5,2.9,2.4,2.4,4.2v0
		C106.5,96,104.6,97.1,102.8,96.6z" fill="#F9A085"></path>
	<line x1="51.2" y1="78.2" x2="50.6" y2="80.4" fill="none" stroke="#F47D62" stroke-width="1.7623" stroke-linecap="round" stroke-miterlimit="10"></line>
	<line x1="55.4" y1="79.3" x2="54.8" y2="81.5" fill="none" stroke="#F47D62" stroke-width="1.7623" stroke-linecap="round" stroke-miterlimit="10"></line>
	<line x1="99.2" y1="91" x2="98.6" y2="93.2" fill="none" stroke="#F47D62" stroke-width="1.7623" stroke-linecap="round" stroke-miterlimit="10"></line>
	<line x1="103.3" y1="92.1" x2="102.7" y2="94.4" fill="none" stroke="#F47D62" stroke-width="1.7623" stroke-linecap="round" stroke-miterlimit="10"></line>
	<path d="M58,52.4c-1.5,1.6-2.7,3.5-3.7,5.8" fill="none" stroke="#FFFFFF" stroke-width="4" stroke-linecap="round" stroke-miterlimit="10"></path>
	<path d="M67.5,46.5c-1.1,0.3-2.3,0.8-3.6,1.4" fill="none" stroke="#FFFFFF" stroke-width="4" stroke-linecap="round" stroke-miterlimit="10"></path>
	<path d="M71.1,127.8L60.8,125c-19.8-5.3-31.5-25.6-26.2-45.4l5.2-19.3c5.3-19.8,25.6-31.5,45.4-26.2l10.3,2.7
		c19.8,5.3,31.5,25.6,26.2,45.4l-5.2,19.3C111.2,121.3,90.9,133.1,71.1,127.8z" fill="none" stroke="#000000" stroke-width="2.8381" stroke-linejoin="round" stroke-miterlimit="10"></path>
	<g>
		<g>
			<g>
				<path d="M96,15.5c-23.4,11.5-7.6,28.3-7.6,28.3S110.5,37.2,96,15.5z" fill="#5CB245" stroke="#000000" stroke-width="2.591" stroke-linecap="round" stroke-linejoin="round" stroke-miterlimit="10"></path>
				<path d="M114.8,40.3c-16.6-10.5-23.3,5.1-23.3,5.1S104.1,56.8,114.8,40.3z" fill="#378A3E" stroke="#000000" stroke-width="2.591" stroke-linecap="round" stroke-linejoin="round" stroke-miterlimit="10"></path>
				<path d="M67.3,27.3c19.6-0.8,17.6,16.1,17.6,16.1S68.4,46.9,67.3,27.3z" fill="#5CB245" stroke="#000000" stroke-width="2.591" stroke-linecap="round" stroke-linejoin="round" stroke-miterlimit="10"></path>
			</g>
		</g>
	</g>
</g>
</svg></g></g><g id="shape_CqREuhJH1H" transform="translate(225.88354992044998,201.91225594424017) rotate(-81,77.51304457572503,32.25776339362782) scale(1,1)" filter="" style="opacity: 1;"><g><svg xmlns="http://www.w3.org/2000/svg" version="1.1" xmlns:xlink="http://www.w3.org/1999/xlink" width="155.02608915145007" height="64.51552678725564" viewBox="0 0 155.02608915145007 64.51552678725564"><rect width="155.02608915145007" height="64.51552678725564" fill="rgba(0,0,0,0)"></rect><g transform="translate(77.51304457572503, 42.34348)"><path d="M8.15-7.13L8.15-7.13Q6.91-7.13 6.11-7.99Q5.31-8.84 5.31-10.08L5.31-10.08Q5.31-11.34 6.11-12.19Q6.91-13.05 8.15-13.05L8.15-13.05Q9.38-13.05 10.18-12.19Q10.99-11.34 10.99-10.08L10.99-10.08Q10.99-8.84 10.18-7.99Q9.38-7.13 8.15-7.13Z" transform="translate(-8.173902975661818, -13.4) rotate(-41.99709374760061, 8.173902975661818, 75.3963427219558)  " fill="rgb(0, 0, 0)" stroke="rgb(0, 0, 0)" stroke-width="0.045" data-glyph-w="14.347805951323636" data-glyph-h="26.8" data-glyph-ascender="23.584" data-glyph-descender="-3.216"></path><path d="M15.25 0L2.30 0L2.30-19.94L14.95-19.94L14.95-15.97L7.10-15.97L7.10-12.27L13.78-12.27L13.78-8.25L7.10-8.25L7.10-4.02L15.25-4.02L15.25 0Z" transform="translate(-8.441902975661819, -13.4) rotate(-32.2118560568173, 8.441902975661819, 75.3963427219558)  " fill="rgb(0, 0, 0)" stroke="rgb(0, 0, 0)" stroke-width="0.045" data-glyph-w="14.883805951323637" data-glyph-h="26.8" data-glyph-ascender="23.584" data-glyph-descender="-3.216"></path><path d="M8.50 0.38L8.50 0.38Q6.54 0.38 4.58-0.35Q2.63-1.07 1.05-2.49L1.05-2.49L3.75-5.79Q6.24-3.75 8.60-3.75L8.60-3.75Q9.94-3.75 10.57-4.22Q11.20-4.69 11.20-5.49L11.20-5.49Q11.20-6.30 10.55-6.73Q9.89-7.16 8.74-7.61L8.74-7.61Q8.58-7.66 8.39-7.75L8.39-7.75L5.84-8.82Q4.77-9.22 3.86-9.96Q2.95-10.69 2.37-11.77Q1.80-12.84 1.80-14.28L1.80-14.28Q1.80-16.80 3.83-18.56Q5.87-20.31 9.03-20.31L9.03-20.31Q10.77-20.31 12.48-19.66Q14.18-19.00 15.52-17.69L15.52-17.69L13.13-14.69Q12.17-15.44 11.19-15.83Q10.21-16.21 9.03-16.21L9.03-16.21Q7.93-16.21 7.29-15.79Q6.65-15.36 6.65-14.55L6.65-14.55Q6.65-13.78 7.40-13.33Q8.15-12.89 9.38-12.44L9.38-12.44Q9.51-12.38 9.67-12.33L9.67-12.33L12.17-11.34Q14.04-10.61 15.08-9.30Q16.11-7.99 16.11-5.87L16.11-5.87Q16.11-4.21 15.21-2.79Q14.31-1.37 12.61-0.50Q10.91 0.38 8.50 0.38Z" transform="translate(-8.562502975661818, -13.4) rotate(-22.16645184635642, 8.562502975661818, 75.3963427219558)  " fill="rgb(0, 0, 0)" stroke="rgb(0, 0, 0)" stroke-width="0.045" data-glyph-w="15.125005951323637" data-glyph-h="26.8" data-glyph-ascender="23.584" data-glyph-descender="-3.216"></path><path d="M10.96 0L6.16 0L6.16-15.97L0.78-15.97L0.78-19.94L16.37-19.94L16.37-15.97L10.96-15.97L10.96 0Z" transform="translate(-8.575902975661819, -13.4) rotate(-12.031335042903285, 8.575902975661819, 75.3963427219558)  " fill="rgb(0, 0, 0)" stroke="rgb(0, 0, 0)" stroke-width="0.045" data-glyph-w="15.151805951323638" data-glyph-h="26.8" data-glyph-ascender="23.584" data-glyph-descender="-3.216"></path><path d="" transform="translate(-5.333102975661818, -13.4) rotate(-4.058291730563641, 5.333102975661818, 75.3963427219558)  " fill="rgb(0, 0, 0)" stroke="rgb(0, 0, 0)" stroke-width="0.045" data-glyph-w="8.666205951323636" data-glyph-h="26.8" data-glyph-ascender="23.584" data-glyph-descender="-3.216"></path><path d="M14.95 0L1.13 0L1.13-2.73Q3.64-4.98 5.51-6.95Q7.37-8.92 8.42-10.63Q9.46-12.33 9.46-13.78L9.46-13.78Q9.46-15.14 8.75-15.87Q8.04-16.59 6.86-16.59L6.86-16.59Q5.84-16.59 5.01-16.01Q4.18-15.44 3.48-14.66L3.48-14.66L0.88-17.23Q2.30-18.79 3.85-19.55Q5.39-20.31 7.50-20.31L7.50-20.31Q10.40-20.31 12.22-18.61Q14.04-16.91 14.04-14.04L14.04-14.04Q14.04-12.33 13.19-10.55Q12.33-8.76 10.96-7.04Q9.59-5.31 8.04-3.75L8.04-3.75Q8.82-3.86 9.71-3.94Q10.61-4.02 11.28-4.02L11.28-4.02L14.95-4.02L14.95 0Z" transform="translate(-8.160502975661819, -13.4) rotate(3.636642543499992, 8.160502975661819, 75.3963427219558)  " fill="rgb(0, 0, 0)" stroke="rgb(0, 0, 0)" stroke-width="0.045" data-glyph-w="14.321005951323638" data-glyph-h="26.8" data-glyph-ascender="23.584" data-glyph-descender="-3.216"></path><path d="M8.15 0.38L8.15 0.38Q4.98 0.38 3.04-2.28Q1.10-4.93 1.10-10.08L1.10-10.08Q1.10-15.22 3.04-17.77Q4.98-20.31 8.15-20.31L8.15-20.31Q11.31-20.31 13.27-17.75Q15.22-15.20 15.22-10.08L15.22-10.08Q15.22-4.93 13.27-2.28Q11.31 0.38 8.15 0.38ZM8.15-3.32L8.15-3.32Q8.87-3.32 9.45-3.87Q10.02-4.42 10.37-5.88Q10.72-7.34 10.72-10.08L10.72-10.08Q10.72-12.81 10.37-14.22Q10.02-15.62 9.45-16.13Q8.87-16.64 8.15-16.64L8.15-16.64Q7.45-16.64 6.86-16.13Q6.27-15.62 5.94-14.22Q5.60-12.81 5.60-10.08L5.60-10.08Q5.60-7.34 5.94-5.88Q6.27-4.42 6.86-3.87Q7.45-3.32 8.15-3.32Z" transform="translate(-8.160502975661819, -13.4) rotate(13.224512529700334, 8.160502975661819, 75.3963427219558)  " fill="rgb(0, 0, 0)" stroke="rgb(0, 0, 0)" stroke-width="0.045" data-glyph-w="14.321005951323638" data-glyph-h="26.8" data-glyph-ascender="23.584" data-glyph-descender="-3.216"></path><path d="M14.69 0L2.09 0L2.09-3.86L6.32-3.86L6.32-15.20L2.65-15.20L2.65-18.14Q5.68-18.71 7.58-19.94L7.58-19.94L11.10-19.94L11.10-3.86L14.69-3.86L14.69 0Z" transform="translate(-8.160502975661819, -13.4) rotate(22.812382515900676, 8.160502975661819, 75.3963427219558)  " fill="rgb(0, 0, 0)" stroke="rgb(0, 0, 0)" stroke-width="0.045" data-glyph-w="14.321005951323638" data-glyph-h="26.8" data-glyph-ascender="23.584" data-glyph-descender="-3.216"></path><path d="M7.77-10.64L7.77-10.64Q8.50-10.64 9.25-11.07Q10.00-11.50 10.59-12.52L10.59-12.52Q10.37-14.15 9.93-15.08Q9.49-16.00 8.90-16.37Q8.31-16.75 7.69-16.75L7.69-16.75Q6.75-16.75 6.06-16.03Q5.36-15.30 5.36-13.56L5.36-13.56Q5.36-11.95 6.07-11.30Q6.78-10.64 7.77-10.64ZM1.29-2.01L1.29-2.01L3.78-4.85Q4.31-4.29 5.15-3.89Q5.98-3.48 6.83-3.48L6.83-3.48Q7.85-3.48 8.68-4.03Q9.51-4.58 10.04-5.86Q10.56-7.13 10.67-9.30L10.67-9.30Q9.92-8.33 8.82-7.81Q7.72-7.29 6.86-7.29L6.86-7.29Q5.20-7.29 3.87-7.96Q2.55-8.63 1.78-10.02Q1.02-11.42 1.02-13.56L1.02-13.56Q1.02-15.68 1.92-17.19Q2.81-18.71 4.31-19.51Q5.82-20.31 7.58-20.31L7.58-20.31Q9.49-20.31 11.19-19.30Q12.89-18.28 13.96-16.05Q15.03-13.83 15.03-10.21L15.03-10.21Q15.03-6.59 13.91-4.25Q12.78-1.90 10.99-0.76Q9.19 0.38 7.16 0.38L7.16 0.38Q5.15 0.38 3.69-0.34Q2.22-1.05 1.29-2.01Z" transform="translate(-8.160502975661819, -13.4) rotate(32.40025250210102, 8.160502975661819, 75.3963427219558)  " fill="rgb(0, 0, 0)" stroke="rgb(0, 0, 0)" stroke-width="0.045" data-glyph-w="14.321005951323638" data-glyph-h="26.8" data-glyph-ascender="23.584" data-glyph-descender="-3.216"></path><path d="M8.15-7.13L8.15-7.13Q6.91-7.13 6.11-7.99Q5.31-8.84 5.31-10.08L5.31-10.08Q5.31-11.34 6.11-12.19Q6.91-13.05 8.15-13.05L8.15-13.05Q9.38-13.05 10.18-12.19Q10.99-11.34 10.99-10.08L10.99-10.08Q10.99-8.84 10.18-7.99Q9.38-7.13 8.15-7.13Z" transform="translate(-8.173902975661818, -13.4) rotate(41.99709374760059, 8.173902975661818, 75.3963427219558)  " fill="rgb(0, 0, 0)" stroke="rgb(0, 0, 0)" stroke-width="0.045" data-glyph-w="14.347805951323636" data-glyph-h="26.8" data-glyph-ascender="23.584" data-glyph-descender="-3.216"></path></g></svg></g></g><g id="shape_4HBTAZTPV9" transform="translate(240.01741764989998,203.15822813334998) rotate(0,152.49,219.47) scale(1,1)" filter="" style="opacity: 1;"><g><svg xmlns="http://www.w3.org/2000/svg" version="1.1" xmlns:xlink="http://www.w3.org/1999/xlink" width="426.96000000000004" height="438.94" viewBox="0 0 426.96000000000004 438.94"><g data-width="182.97" transform="translate(61.005, 0)"><path d="M53.54-49.32L56.28-42.94Q52.89-42.76 47.53-42.47L47.53-42.47L53.72-40.32Q51.88-38.12 47.47-35.08L47.47-35.08L56.88-35.08L56.88-26.50L49.61-26.50L49.61-30.85L20.85-30.85L26.80-29.24Q26.33-27.76 25.19-25.19L25.19-25.19L58.43-25.19L58.43-20.97L23.17-20.97Q22.16-19.12 21.08-17.27L21.08-17.27L54.38-17.27L54.38-13.04Q51.16-8.70 41.75-4.05L41.75-4.05Q50.21-1.91 59.32-1.13L59.32-1.13L55.09 5.30Q43.48 4.47 32.64-0.24L32.64-0.24Q22.04 3.45 8.64 5.30L8.64 5.30L6.61 2.03Q15.78 0.48 26.09-3.51L26.09-3.51Q20.37-6.73 16.26-10.24L16.26-10.24Q11.08-3.39 4.47 2.26L4.47 2.26L1.67-0.60Q8.70-6.85 15.43-20.97L15.43-20.97L2.62-20.97L2.62-25.19L17.33-25.19Q18.52-27.93 19.60-30.85L19.60-30.85L11.38-30.85L11.38-26.50L4.11-26.50L4.11-35.08L11.61-35.08Q9.53-37.70 7.68-40.08L7.68-40.08L9.83-41.39Q7.74-41.39 5.84-41.39L5.84-41.39L4.71-45.98Q31.63-46.34 53.54-49.32L53.54-49.32ZM43.72-13.04L19.06-13.04Q24.66-9.53 33.18-6.55L33.18-6.55Q39.37-9.59 43.72-13.04L43.72-13.04ZM28.47-41.75Q32.58-38.95 34.84-36.09L34.84-36.09L33.12-35.08L39.79-35.08Q43.06-38.54 45.98-42.41L45.98-42.41Q36.99-41.99 28.47-41.75L28.47-41.75ZM16.97-35.08L27.40-35.08Q25.55-37.94 23.88-40.56L23.88-40.56L26.09-41.69Q18.94-41.45 12.63-41.39L12.63-41.39Q16.74-39.07 19.12-36.57L19.12-36.57L16.97-35.08Z" transform="translate(0 241.97) " fill="#000000" stroke="#000000" stroke-width="0.102" data-glyph-w="60.99" data-glyph-h="59.560546875" data-glyph-ascender="52.413281250000004" data-glyph-descender="-7.147265625"></path><path d="M19.06-43.54L4.23-43.54L4.23 0.71L19.06 0.71L19.06-43.54ZM10.18-3.51L10.18-39.25L13.16-39.25L13.16-3.51L10.18-3.51ZM37.46-6.79L37.46-11.50L41.45-11.50L41.45-6.79L37.46-6.79ZM36.51-43.54L20.49-43.54L20.49-39.25L26.98-39.25L25.07-38.00Q27.04-34.84 28.59-31.92L28.59-31.92L21.74-31.92L21.74 4.71L29.01 4.71L29.01-27.70L49.91-27.70L49.91-0.77Q49.91 0.48 48.84 0.48L48.84 0.48L41.63 0.48L42.29 4.71L53.37 4.71Q54.97 4.71 56.05 3.45L56.05 3.45Q57.18 2.20 57.18 0.48L57.18 0.48L57.18-31.92L49.49-31.92Q52.95-34.90 54.62-37.64L54.62-37.64L51.46-39.25L58.43-39.25L58.43-43.54L42.53-43.54L44.97-44.73Q42.23-47.53 38.24-49.32L38.24-49.32L34.19-47.11Q35.38-45.50 36.51-43.54L36.51-43.54ZM43.12-23.59L43.12-26.50L35.86-26.50L35.86-23.59L30.50-23.59L30.50-19.36L35.86-19.36L35.86-15.72L31.33-15.72L31.33-2.50L47.59-2.50L47.59-15.72L43.12-15.72L43.12-19.36L48.48-19.36L48.48-23.59L43.12-23.59ZM47.47-39.25Q45.39-35.44 43.12-31.92L43.12-31.92L33.59-31.92L35.62-33.06Q33.71-36.39 29.84-39.25L29.84-39.25L47.47-39.25Z" transform="translate(60.99 241.97) " fill="#000000" stroke="#000000" stroke-width="0.102" data-glyph-w="60.99" data-glyph-h="59.560546875" data-glyph-ascender="52.413281250000004" data-glyph-descender="-7.147265625"></path><path d="M22.39-44.55L4.23-44.55L4.23-0.30L22.39-0.30L22.39-44.55ZM11.50-4.59L11.50-40.32L15.13-40.32L15.13-4.59L11.50-4.59ZM33.41-1.43L33.41-19.30L49.44-19.30L49.44-1.43L33.41-1.43ZM45.09-39.97L45.09-48.66L37.76-48.66L37.76-39.97L24.42-39.97L24.42-35.74L37.76-35.74L37.76-23.59L26.15-23.59L26.15 2.86L56.70 2.86L56.70-23.59L45.09-23.59L45.09-35.74L58.43-35.74L58.43-39.97L45.09-39.97Z" transform="translate(121.98 241.97) " fill="#000000" stroke="#000000" stroke-width="0.102" data-glyph-w="60.99" data-glyph-h="59.560546875" data-glyph-ascender="52.413281250000004" data-glyph-descender="-7.147265625"></path></g></svg></g></g><g id="shape_kBcj8wJtJy" transform="translate(270.00903474286,377.65002653484) rotate(0,122.5,88) scale(1,1)" filter="" style="opacity: 1;"><g><svg xmlns="http://www.w3.org/2000/svg" version="1.1" xmlns:xlink="http://www.w3.org/1999/xlink" width="294" height="176" viewBox="0 0 294 176"><g data-width="196" transform="translate(24.5, 0)"><path d="M7.66-17.49L1.70-17.49L1.70 0.29L7.66 0.29L7.66-17.49ZM4.09-1.41L4.09-15.77L5.29-15.77L5.29-1.41L4.09-1.41ZM15.05-2.73L15.05-4.62L16.65-4.62L16.65-2.73L15.05-2.73ZM14.67-17.49L8.23-17.49L8.23-15.77L10.84-15.77L10.07-15.26Q10.86-14.00 11.48-12.82L11.48-12.82L8.73-12.82L8.73 1.89L11.65 1.89L11.65-11.13L20.05-11.13L20.05-0.31Q20.05 0.19 19.62 0.19L19.62 0.19L16.72 0.19L16.99 1.89L21.44 1.89Q22.08 1.89 22.51 1.39L22.51 1.39Q22.97 0.89 22.97 0.19L22.97 0.19L22.97-12.82L19.88-12.82Q21.27-14.02 21.94-15.12L21.94-15.12L20.67-15.77L23.47-15.77L23.47-17.49L17.08-17.49L18.06-17.97Q16.96-19.09 15.36-19.81L15.36-19.81L13.73-18.93Q14.21-18.28 14.67-17.49L14.67-17.49ZM17.32-9.47L17.32-10.65L14.40-10.65L14.40-9.47L12.25-9.47L12.25-7.78L14.40-7.78L14.40-6.32L12.58-6.32L12.58-1.00L19.12-1.00L19.12-6.32L17.32-6.32L17.32-7.78L19.48-7.78L19.48-9.47L17.32-9.47ZM19.07-15.77Q18.23-14.24 17.32-12.82L17.32-12.82L13.49-12.82L14.31-13.28Q13.54-14.62 11.99-15.77L11.99-15.77L19.07-15.77Z" transform="translate(0 96.5) " fill="#000000" stroke="#000000" stroke-width="0.041" data-glyph-w="24.5" data-glyph-h="23.92578125" data-glyph-ascender="21.0546875" data-glyph-descender="-2.87109375"></path><path d="M9.00-17.90L1.70-17.90L1.70-0.12L9.00-0.12L9.00-17.90ZM4.62-1.84L4.62-16.20L6.08-16.20L6.08-1.84L4.62-1.84ZM13.42-0.57L13.42-7.75L19.86-7.75L19.86-0.57L13.42-0.57ZM18.11-16.05L18.11-19.55L15.17-19.55L15.17-16.05L9.81-16.05L9.81-14.36L15.17-14.36L15.17-9.47L10.50-9.47L10.50 1.15L22.78 1.15L22.78-9.47L18.11-9.47L18.11-14.36L23.47-14.36L23.47-16.05L18.11-16.05Z" transform="translate(24.5 96.5) " fill="#000000" stroke="#000000" stroke-width="0.041" data-glyph-w="24.5" data-glyph-h="23.92578125" data-glyph-ascender="21.0546875" data-glyph-descender="-2.87109375"></path><path d="M6.34-4.81L8.06-4.81L8.66-18.21L5.74-18.21L6.34-4.81ZM7.20-2.75L7.20-2.75Q6.44-2.75 5.91-2.20L5.91-2.20Q5.38-1.67 5.38-0.91L5.38-0.91Q5.38-0.17 5.91 0.38L5.91 0.38Q6.44 0.91 7.20 0.91L7.20 0.91Q7.97 0.91 8.49 0.38L8.49 0.38Q9.02-0.17 9.02-0.91L9.02-0.91Q9.02-1.67 8.49-2.20L8.49-2.20Q7.97-2.75 7.20-2.75Z" transform="translate(49 96.5) " fill="#000000" stroke="#000000" stroke-width="0.041" data-glyph-w="24.5" data-glyph-h="23.92578125" data-glyph-ascender="21.0546875" data-glyph-descender="-2.87109375"></path><path d="M3.01-1.32Q2.44-1.00 1.87-0.69L1.87-0.69L3.49 1.65Q6.60-0.12 9.04-3.23L9.04-3.23L9.04 1.89L11.99 1.89L11.99 0.91L23.47 0.91L23.47-0.79L18.71-0.79L18.71-4.21L22.92-4.21L22.92-5.93L18.71-5.93L18.71-9.35L22.92-9.35L22.92-11.05L18.71-11.05L18.71-14.50L23.18-14.50L23.18-16.20L18.54-16.20L19.71-17.18Q18.49-18.71 16.22-19.81L16.22-19.81L14.86-18.88Q16.08-17.59 17.08-16.20L17.08-16.20L12.56-16.20Q13.21-17.59 13.59-19.04L13.59-19.04L10.74-19.81Q9.00-14.50 6.39-10.81L6.39-10.81L7.51-9.69Q8.33-10.41 9.04-11.17L9.04-11.17L9.04-3.52L8.13-4.62Q7.11-3.85 5.96-3.09L5.96-3.09L5.96-12.73L1.05-12.73L1.05-11.01L3.01-11.01L3.01-1.32ZM11.99-4.21L15.79-4.21L15.79-0.79L11.99-0.79L11.99-4.21ZM11.99-14.50L15.79-14.50L15.79-11.05L11.99-11.05L11.99-14.50ZM11.99-9.35L15.79-9.35L15.79-5.93L11.99-5.93L11.99-9.35ZM7.37-15.55L7.37-15.55L5.00-13.78Q3.47-16.13 1.60-18.57L1.60-18.57L2.73-19.55Q5.50-17.90 7.37-15.55Z" transform="translate(73.5 96.5) " fill="#000000" stroke="#000000" stroke-width="0.041" data-glyph-w="24.5" data-glyph-h="23.92578125" data-glyph-ascender="21.0546875" data-glyph-descender="-2.87109375"></path><path d="M8.90-19.81L11.77-19.02Q11.58-18.23 10.98-16.94L10.98-16.94L23.47-16.94L23.47-15.24L10.10-15.24Q8.69-12.80 6.60-10.53L6.60-10.53L6.60 1.89L3.68 1.89L3.68-7.73Q2.78-6.96 1.79-6.24L1.79-6.24L0.67-7.39Q4.12-10.69 6.77-15.24L6.77-15.24L1.05-15.24L1.05-16.94L7.68-16.94Q8.42-18.40 8.90-19.81L8.90-19.81ZM23.47 0.91L23.47-0.79L16.92-0.79L16.92-7.73L22.61-7.73L22.61-9.43L16.92-9.43L16.92-14.07L14.00-14.07L14.00-9.43L8.33-9.43L8.33-7.73L14.00-7.73L14.00-0.79L7.46-0.79L7.46 0.91L23.47 0.91Z" transform="translate(98 96.5) " fill="#000000" stroke="#000000" stroke-width="0.041" data-glyph-w="24.5" data-glyph-h="23.92578125" data-glyph-ascender="21.0546875" data-glyph-descender="-2.87109375"></path><path d="M6.48-4.07L6.48-12.47L1.05-12.47L1.05-10.77L3.54-10.77L3.54-4.07Q3.54-1.00 0.67 0.79L0.67 0.79L1.60 2.13Q4.31 1.46 5.69-0.96L5.69-0.96Q7.58 1.65 11.25 1.65L11.25 1.65L23.02 1.65L23.83-1.03L12.51-1.03Q8.13-1.03 6.44-3.28L6.44-3.28Q6.48-3.66 6.48-4.07L6.48-4.07ZM3.30-19.55Q5.62-17.71 7.30-15.46L7.30-15.46L4.86-13.78Q3.52-16.20 1.94-18.61L1.94-18.61L3.30-19.55ZM14.59-19.81Q16.39-19.07 17.85-17.59L17.85-17.59L16.13-16.37L23.47-16.37L23.47-14.67L21.63-14.67Q20.55-10.93 17.97-8.02L17.97-8.02Q20.86-5.84 22.61-4.26L22.61-4.26L20.67-2.03Q18.52-4.00 16.05-6.15L16.05-6.15Q12.35-3.01 8.35-2.03L8.35-2.03L7.68-3.33Q11.10-4.81 14.21-7.78L14.21-7.78Q11.13-10.43 8.88-12.25L8.88-12.25L9.86-13.52Q12.85-11.72 15.86-9.57L15.86-9.57Q17.80-11.99 18.59-14.67L18.59-14.67L7.78-14.67L7.78-16.37L15.19-16.37Q14.28-17.61 13.28-18.81L13.28-18.81L14.59-19.81Z" transform="translate(122.5 96.5) " fill="#000000" stroke="#000000" stroke-width="0.041" data-glyph-w="24.5" data-glyph-h="23.92578125" data-glyph-ascender="21.0546875" data-glyph-descender="-2.87109375"></path><path d="M22.18-18.66L2.34-18.66L2.34-7.23L10.79-7.23L10.79-4.81L1.89-4.81L1.89-3.09L10.79-3.09L10.79-0.55L1.05-0.55L1.05 1.15L23.47 1.15L23.47-0.55L13.71-0.55L13.71-3.09L22.61-3.09L22.61-4.81L13.71-4.81L13.71-7.23L22.18-7.23L22.18-18.66ZM19.24-8.92L13.71-8.92L13.71-12.08L19.24-12.08L19.24-8.92ZM19.24-13.81L13.71-13.81L13.71-16.94L19.24-16.94L19.24-13.81ZM5.26-16.94L10.79-16.94L10.79-13.81L5.26-13.81L5.26-16.94ZM5.26-12.08L10.79-12.08L10.79-8.92L5.26-8.92L5.26-12.08Z" transform="translate(147 96.5) " fill="#000000" stroke="#000000" stroke-width="0.041" data-glyph-w="24.5" data-glyph-h="23.92578125" data-glyph-ascender="21.0546875" data-glyph-descender="-2.87109375"></path><path d="M15.79-13.09Q15.79-15.36 13.97-16.99L13.97-16.99Q12.18-18.59 9.62-18.59L9.62-18.59Q5.79-18.59 4.09-15.50L4.09-15.50L5.60-14.62Q6.63-16.27 9.04-16.27L9.04-16.27Q10.62-16.27 11.75-15.43L11.75-15.43Q12.85-14.59 12.85-13.40L12.85-13.40Q12.85-12.49 12.13-11.65L12.13-11.65Q12.11-11.63 10.50-10.14L10.50-10.14Q8.16-7.94 8.16-4.81L8.16-4.81L11.08-4.81Q11.08-6.87 13.45-8.90L13.45-8.90Q15.79-10.96 15.79-13.09L15.79-13.09ZM9.62-2.75L9.62-2.75Q8.88-2.75 8.33-2.20L8.33-2.20Q7.80-1.67 7.80-0.91L7.80-0.91Q7.80-0.17 8.33 0.38L8.33 0.38Q8.88 0.91 9.62 0.91L9.62 0.91Q10.38 0.91 10.91 0.38L10.91 0.38Q11.46-0.17 11.46-0.91L11.46-0.91Q11.46-1.67 10.91-2.20L10.91-2.20Q10.38-2.75 9.62-2.75Z" transform="translate(171.5 96.5) " fill="#000000" stroke="#000000" stroke-width="0.041" data-glyph-w="24.5" data-glyph-h="23.92578125" data-glyph-ascender="21.0546875" data-glyph-descender="-2.87109375"></path></g></svg></g></g><g id="shape_Qzo6KRpSje" transform="translate(365.1302066853611,231.53575057004022) rotate(105,103.0001251623439,43.114135769541264) scale(1,1)" filter="" style="opacity: 1;"><g><svg xmlns="http://www.w3.org/2000/svg" version="1.1" xmlns:xlink="http://www.w3.org/1999/xlink" width="206.0002503246878" height="86.22827153908253" viewBox="0 0 206.0002503246878 86.22827153908253"><rect width="206.0002503246878" height="86.22827153908253" fill="rgba(0,0,0,0)"></rect><g transform="translate(103.0001251623439, 42.34348)"><path d="M6.22-7.99L6.22-17.15L5.04-17.15L5.04-7.99L6.22-7.99ZM1.58-20.72L9.59-20.72L9.59-4.42L5.04-4.42L5.04-2.14L1.58-2.14L1.58-20.72ZM16.62-16.11L14.90-15.62L18.92-15.62Q19.38-16.78 19.67-17.98L19.67-17.98L16.05-17.98Q16.46-16.94 16.62-16.11L16.62-16.11ZM17.15-3.89L18.60-3.89L18.60-4.93L17.15-4.93L17.15-3.89ZM19.81-21.06L25.84-21.06L25.84-17.98L21.15-17.98L22.99-17.53Q22.62-16.78 22.32-16.11L22.32-16.11Q22.19-15.87 22.08-15.62L22.08-15.62L25.27-15.62L25.27-1.05Q25.27 0.08 25.04 0.79Q24.82 1.50 24.12 1.90L24.12 1.90Q22.81 2.63 20.42 2.49L20.42 2.49Q20.34 1.77 20.09 0.86Q19.83-0.05 19.51-0.75L19.51-0.75Q20.13-0.72 20.70-0.71Q21.28-0.70 21.49-0.70L21.49-0.70Q21.95-0.70 21.90-1.10L21.90-1.10L21.90-12.57L19.16-12.57L19.16-11.07L21.39-11.07L21.39-8.52L19.16-8.52L19.16-7.32L20.98-7.32L20.98-1.50L17.15-1.50L17.15-0.67L14.77-0.67L14.77-7.32L16.40-7.32L16.40-8.52L14.36-8.52L14.36-11.07L16.40-11.07L16.40-12.57L13.88-12.57L13.88 2.57L10.61 2.57L10.61-15.62L13.19-15.62Q13.02-16.64 12.65-17.61L12.65-17.61L14.10-17.98L10.26-17.98L10.26-21.06L16.11-21.06Q15.89-21.71 15.65-22.32L15.65-22.32L18.97-23.13Q19.48-22.16 19.81-21.06L19.81-21.06Z" transform="translate(-13.399954898236397, -13.4) rotate(-51.59222464121618, 13.399954898236397, 90.3716256523796)  " fill="rgb(0, 0, 0)" stroke="rgb(0, 0, 0)" stroke-width="0.045" data-glyph-w="25.870209796472793" data-glyph-h="26.8" data-glyph-ascender="23.584" data-glyph-descender="-3.216"></path><path d="M6.83-7.96L6.83-16.72L5.12-16.72L5.12-7.96L6.83-7.96ZM1.55-20.31L10.40-20.31L10.40-4.37L5.12-4.37L5.12-2.09L1.55-2.09L1.55-20.31ZM15.87-2.49L21.06-2.49L21.06-6.22L15.87-6.22L15.87-2.49ZM26.05-17.80L26.05-14.07L20.26-14.07L20.26-9.78L25.11-9.78L25.11 2.22L21.06 2.22L21.06 1.02L15.87 1.02L15.87 2.47L12.03 2.47L12.03-9.78L16.35-9.78L16.35-14.07L11.31-14.07L11.31-17.80L16.35-17.80L16.35-22.67L20.26-22.67L20.26-17.80L26.05-17.80Z" transform="translate(-13.399954898236397, -13.4) rotate(-36.85158902944013, 13.399954898236397, 90.3716256523796)  " fill="rgb(0, 0, 0)" stroke="rgb(0, 0, 0)" stroke-width="0.045" data-glyph-w="25.870209796472793" data-glyph-h="26.8" data-glyph-ascender="23.584" data-glyph-descender="-3.216"></path><path d="M8.39-7.13L5.04-7.13L3.94-15.60L3.78-20.05L9.65-20.05L9.49-15.60L8.39-7.13ZM6.70 0.32L6.70 0.32Q5.33 0.32 4.44-0.51Q3.54-1.34 3.54-2.63L3.54-2.63Q3.54-3.89 4.44-4.73Q5.33-5.57 6.70-5.57L6.70-5.57Q8.07-5.57 8.96-4.73Q9.86-3.89 9.86-2.63L9.86-2.63Q9.86-1.34 8.96-0.51Q8.07 0.32 6.70 0.32Z" transform="translate(-13.399954898236397, -13.4) rotate(-22.110953417664078, 13.399954898236397, 90.3716256523796)  " fill="rgb(0, 0, 0)" stroke="rgb(0, 0, 0)" stroke-width="0.045" data-glyph-w="25.870209796472793" data-glyph-h="26.8" data-glyph-ascender="23.584" data-glyph-descender="-3.216"></path><path d="M8.71-18.52L8.71-18.52L6.06-15.84Q5.39-16.83 4.17-18.05Q2.95-19.27 1.77-20.29L1.77-20.29L4.23-22.65Q5.41-21.73 6.69-20.60Q7.96-19.46 8.71-18.52ZM7.42-14.74L7.42-5.57L9.30-7.26Q9.57-6.43 10.00-5.49Q10.43-4.56 10.80-3.97L10.80-3.97Q10.59-3.78 10.37-3.56L10.37-3.56Q8.04-1.47 6.78-0.34Q5.52 0.80 4.97 1.35Q4.42 1.90 4.21 2.22L4.21 2.22Q3.83 1.63 3.12 0.90Q2.41 0.16 1.88-0.24L1.88-0.24Q2.49-0.78 3.07-1.80Q3.64-2.81 3.64-4.15L3.64-4.15L3.64-11.01L0.80-11.01L0.80-14.74L7.42-14.74ZM17.82-4.42L14.85-4.42L14.85-2.68L17.82-2.68L17.82-4.42ZM14.85-12.94L17.82-12.94L17.82-14.66L14.85-14.66L14.85-12.94ZM14.85-7.88L17.82-7.88L17.82-9.49L14.85-9.49L14.85-7.88ZM21.44-2.68L26.02-2.68L26.02 0.91L14.85 0.91L14.85 2.60L11.20 2.60L11.20-11.15Q10.64-10.45 10.05-9.84L10.05-9.84Q9.62-10.53 8.98-11.44Q8.33-12.35 7.80-12.97L7.80-12.97Q9.59-14.90 11.03-17.63Q12.46-20.37 13.21-22.86L13.21-22.86L17.04-21.79Q16.35-20.02 15.49-18.14L15.49-18.14L18.71-18.14Q18.14-19.75 17.23-21.28L17.23-21.28L20.50-22.67Q21.12-21.76 21.64-20.73Q22.16-19.70 22.43-18.87L22.43-18.87L20.85-18.14L25.51-18.14L25.51-14.66L21.44-14.66L21.44-12.94L24.84-12.94L24.84-9.49L21.44-9.49L21.44-7.88L24.84-7.88L24.84-4.42L21.44-4.42L21.44-2.68Z" transform="translate(-13.399954898236397, -13.4) rotate(-7.370317805888034, 13.399954898236397, 90.3716256523796)  " fill="rgb(0, 0, 0)" stroke="rgb(0, 0, 0)" stroke-width="0.045" data-glyph-w="25.870209796472793" data-glyph-h="26.8" data-glyph-ascender="23.584" data-glyph-descender="-3.216"></path><path d="M24.36-7.05L19.43-7.05L19.43-1.74L25.38-1.74L25.38 1.85L9.33 1.85L9.33-1.74L15.49-1.74L15.49-7.05L10.34-7.05L10.34-10.64L15.49-10.64L15.49-14.69L19.43-14.69L19.43-10.64L24.36-10.64L24.36-7.05ZM12.84-19.43L12.84-19.43L25.51-19.43L25.51-15.70L11.26-15.70Q9.97-12.94 8.17-10.48L8.17-10.48L8.17 2.52L4.23 2.52L4.23-6.22Q3.30-5.41 2.25-4.72L2.25-4.72Q1.93-5.57 1.39-6.66Q0.86-7.75 0.40-8.52L0.40-8.52Q4.42-11.20 6.81-15.70L6.81-15.70L1.37-15.70L1.37-19.43L8.52-19.43Q9.19-21.20 9.62-22.94L9.62-22.94L13.69-21.98Q13.37-20.96 13.02-19.97L13.02-19.97Q12.92-19.70 12.84-19.43Z" transform="translate(-13.399954898236397, -13.4) rotate(7.370317805888012, 13.399954898236397, 90.3716256523796)  " fill="rgb(0, 0, 0)" stroke="rgb(0, 0, 0)" stroke-width="0.045" data-glyph-w="25.870209796472793" data-glyph-h="26.8" data-glyph-ascender="23.584" data-glyph-descender="-3.216"></path><path d="M0.83-19.83L0.83-19.83L3.91-21.92Q4.93-20.98 6.02-19.85Q7.10-18.71 7.75-17.74L7.75-17.74L4.42-15.41Q3.89-16.35 2.87-17.57Q1.85-18.79 0.83-19.83ZM24.90-5.33L24.90-5.33L21.98-2.52Q20.13-4.42 17.04-6.83L17.04-6.83Q14.31-4.15 10.34-2.55L10.34-2.55Q11.63-2.09 13.24-1.96Q14.85-1.82 16.64-1.82L16.64-1.82Q18.49-1.82 21.28-2.01Q24.07-2.20 26.18-2.55L26.18-2.55Q25.81-1.63 25.45-0.40Q25.08 0.83 25.03 1.74L25.03 1.74Q23.56 1.85 21.05 1.94Q18.55 2.04 16.48 2.04L16.48 2.04Q11.42 2.04 8.84 0.70L8.84 0.70Q8.17 0.35 7.64 0.03L7.64 0.03Q7.13-0.29 6.71-0.51Q6.30-0.72 6.00-0.72L6.00-0.72Q5.39-0.72 4.57 0.34Q3.75 1.39 3.06 2.57L3.06 2.57L0.35-1.31Q2.09-3.00 3.86-3.86L3.86-3.86L3.86-9.43L1.07-9.43L1.07-13.02L7.58-13.02L7.58-3.97Q7.80-3.86 8.04-3.70L8.04-3.70Q8.60-3.38 9.38-2.97L9.38-2.97Q9.67-2.81 9.94-2.71L9.94-2.71Q9.57-3.40 8.96-4.31Q8.36-5.23 7.85-5.82L7.85-5.82Q11.58-6.99 14.02-9.19L14.02-9.19Q11.12-11.39 8.52-13.21L8.52-13.21L11.15-15.52Q11.52-15.25 11.95-14.98L11.95-14.98Q14.02-13.56 16.37-11.93L16.37-11.93Q17.47-13.59 18.14-15.65L18.14-15.65L7.75-15.65L7.75-19.27L14.31-19.27Q13.83-20.69 13.19-21.98L13.19-21.98L16.94-23.16Q17.47-22.22 17.96-21.17Q18.44-20.13 18.65-19.27L18.65-19.27L25.38-19.27L25.38-15.65L22.19-15.65Q21.12-12.30 19.43-9.73L19.43-9.73Q22.78-7.29 24.90-5.33Z" transform="translate(-13.399954898236397, -13.4) rotate(22.110953417664057, 13.399954898236397, 90.3716256523796)  " fill="rgb(0, 0, 0)" stroke="rgb(0, 0, 0)" stroke-width="0.045" data-glyph-w="25.870209796472793" data-glyph-h="26.8" data-glyph-ascender="23.584" data-glyph-descender="-3.216"></path><path d="M11.82-13.96L7.75-13.96L7.75-12.44L11.82-12.44L11.82-13.96ZM11.82-18.60L7.75-18.60L7.75-17.13L11.82-17.13L11.82-18.60ZM15.49-17.13L19.43-17.13L19.43-18.60L15.49-18.60L15.49-17.13ZM15.49-12.44L19.43-12.44L19.43-13.96L15.49-13.96L15.49-12.44ZM15.79-3.59L15.79-1.85L25.65-1.85L25.65 1.77L1.26 1.77L1.26-1.85L11.50-1.85L11.50-3.59L3.08-3.59L3.08-7.18L11.50-7.18L11.50-9.00L3.86-9.00L3.86-22.03L23.50-22.03L23.50-9.00L15.79-9.00L15.79-7.18L24.33-7.18L24.33-3.59L15.79-3.59Z" transform="translate(-13.399954898236397, -13.4) rotate(36.851589029440106, 13.399954898236397, 90.3716256523796)  " fill="rgb(0, 0, 0)" stroke="rgb(0, 0, 0)" stroke-width="0.045" data-glyph-w="25.870209796472793" data-glyph-h="26.8" data-glyph-ascender="23.584" data-glyph-descender="-3.216"></path><path d="M8.52-7.13L4.34-7.13Q4.21-8.92 4.93-10.06Q5.65-11.20 6.59-12.03L6.59-12.03Q7.24-12.65 7.72-13.25Q8.20-13.86 8.20-14.63L8.20-14.63Q8.20-15.57 7.65-16.04Q7.10-16.51 6.24-16.51L6.24-16.51Q4.61-16.51 3.48-15.12L3.48-15.12L0.86-17.53Q1.93-18.84 3.47-19.60Q5.01-20.37 6.81-20.37L6.81-20.37Q8.50-20.37 9.84-19.81Q11.18-19.24 11.97-18.06Q12.76-16.88 12.76-15.06L12.76-15.06Q12.76-13.56 12.07-12.62Q11.39-11.68 10.53-10.93L10.53-10.93Q9.67-10.21 9.07-9.34Q8.47-8.47 8.52-7.13L8.52-7.13ZM3.27-2.65L3.27-2.65Q3.27-3.94 4.15-4.76Q5.04-5.57 6.43-5.57L6.43-5.57Q7.83-5.57 8.71-4.76Q9.59-3.94 9.59-2.65L9.59-2.65Q9.59-1.37 8.71-0.52Q7.83 0.32 6.43 0.32L6.43 0.32Q5.04 0.32 4.15-0.52Q3.27-1.37 3.27-2.65Z" transform="translate(-13.399954898236397, -13.4) rotate(51.59222464121615, 13.399954898236397, 90.3716256523796)  " fill="rgb(0, 0, 0)" stroke="rgb(0, 0, 0)" stroke-width="0.045" data-glyph-w="25.870209796472793" data-glyph-h="26.8" data-glyph-ascender="23.584" data-glyph-descender="-3.216"></path></g></svg></g></g></svg>