<?xml version="1.0" standalone="no"?><!DOCTYPE svg PUBLIC "-//W3C//DTD SVG 1.1//EN" "http://www.w3.org/Graphics/SVG/1.1/DTD/svg11.dtd"><svg class="icon" width="200px" height="200.00px" viewBox="0 0 1024 1024" version="1.1" xmlns="http://www.w3.org/2000/svg"><path d="M137.902164 0.00045a48.572979 48.572979 0 0 0-35.588984 15.293993 53.964976 53.964976 0 0 0-15.272993 35.639985v917.411596a48.706979 48.706979 0 0 0 15.272993 35.639985 49.970978 49.970978 0 0 0 35.589984 15.292993h746.335672a48.639979 48.639979 0 0 0 35.589985-15.292993 50.369978 50.369978 0 0 0 15.272993-35.639985V288.717323L646.727941 0.00045H137.902164z" fill="#FF8976" /><path d="M935.101814 288.717323H697.655918c-27.821988-0.666-50.226978-23.07599-50.927977-50.933977V0.00045l288.373873 288.716873z" fill="#FFD0C8" /><path d="M415.258043 564.731202l-124.702946 49.269978 124.702946 49.274979v39.095982l-172.174925-68.755969v-39.096983l172.174925-68.75597v38.962983z m123.765945-113.04395h39.044983l-95.016958 254.800888h-38.978983l94.949958-254.800888z m67.85997 212.376906l124.702946-49.269978-124.702946-49.269979v-39.099982l172.174925 67.95697v39.894982l-172.174925 68.82297v-39.034983z" fill="#FFFFFF" /></svg>