<?xml version="1.0" standalone="no"?><!DOCTYPE svg PUBLIC "-//W3C//DTD SVG 1.1//EN" "http://www.w3.org/Graphics/SVG/1.1/DTD/svg11.dtd"><svg class="icon" width="200px" height="200.00px" viewBox="0 0 1024 1024" version="1.1" xmlns="http://www.w3.org/2000/svg"><path d="M594.944 0l335.124 341.32v563.2c0 65.996-52.5 119.48-117.294 119.48H209.546c-64.793 0-117.299-53.53-117.299-119.48V119.48C92.252 53.484 144.757 0 209.551 0h385.393z" fill="#36D2AD" /><path d="M930.068 341.32H718.152c-64.748 0-123.208-59.49-123.208-125.492V0l335.124 341.32z" fill="#FFFFFF" fill-opacity=".4" /><path d="M613.56 426.68H278.426c-10.24 0-18.617 8.474-18.617 18.944v303.432c0 10.47 8.377 18.944 18.617 18.944h335.13c10.285 0 18.616-8.474 18.616-18.944V445.624a18.806 18.806 0 0 0-18.617-18.944z m-37.237 284.396H315.668v-94.771l55.86-56.873 93.086 94.812 55.86-56.924 55.849 56.924v56.878-0.051z m-37.238-151.644a37.56 37.56 0 0 1-37.233-37.94c0-20.94 16.66-37.934 37.233-37.934 20.577 0 37.238 16.994 37.238 37.94 0 20.94-16.66 37.934-37.238 37.934z" fill="#FFFFFF" /></svg>