<?xml version="1.0" standalone="no"?><!DOCTYPE svg PUBLIC "-//W3C//DTD SVG 1.1//EN" "http://www.w3.org/Graphics/SVG/1.1/DTD/svg11.dtd"><svg class="icon" width="200px" height="200.00px" viewBox="0 0 1024 1024" version="1.1" xmlns="http://www.w3.org/2000/svg"><path d="M594.944 0l335.124 341.32v563.2c0 65.996-52.5 119.48-117.294 119.48H209.546c-64.793 0-117.299-53.53-117.299-119.48V119.48C92.252 53.484 144.757 0 209.551 0h385.393z" fill="#E94848" /><path d="M482.954 375.48a40.586 40.586 0 0 0-40.028 40.776c0 27.786 15.17 62.326 31.18 94.771-12.564 39.834-26.715 82.473-44.82 118.503-37.094 14.796-70.195 25.83-90.06 42.168a41.708 41.708 0 0 0-12.39 29.926c0 22.344 18.063 40.776 40.038 40.776a39.332 39.332 0 0 0 29.27-12.472c14.618-17.828 31.888-50.13 47.294-79.642 35.42-14.198 72.607-28.672 108.447-37.325 26.163 21.453 64.051 35.65 95.186 35.65 21.97 0 40.033-18.385 40.033-40.775a40.586 40.586 0 0 0-40.033-40.724c-24.991 0-61.297 9.072-89.037 18.616a301.338 301.338 0 0 1-58.092-76.984c10.66-33.332 23.04-66.658 23.04-92.488a40.586 40.586 0 0 0-40.028-40.776z m0 24.438c8.98 0 16.01 7.168 16.01 16.292 0 12.237-6.42 34.816-13.87 59.018-9.958-23.552-18.15-46.172-18.15-58.972 0-9.165 7.025-16.292 16.01-16.292v-0.046z m6.887 139.546a323.574 323.574 0 0 0 41.523 53.76c-23.742 6.604-46.92 15.078-69.822 23.92 11.08-25.364 19.917-51.758 28.299-77.726v0.046z m157.235 52.126c8.98 0 16.01 7.122 16.01 16.292 0 9.124-7.03 16.292-16.015 16.292-18.059 0-43.659-8.284-64.185-19.876 23.552-6.794 49.204-12.749 64.185-12.749v0.041zM408.15 664.576c-11.264 20.48-22.436 39.562-30.26 49.152a15.078 15.078 0 0 1-11.028 4.188 15.964 15.964 0 0 1-16.01-16.292 17.707 17.707 0 0 1 4.234-11.356c9.4-7.398 29.835-16.292 53.064-25.692z" fill="#FFFFFF" /><path d="M930.068 341.32H718.152c-64.748 0-123.208-59.49-123.208-125.492V0l335.124 341.32z" fill="#FFFFFF" fill-opacity=".4" /></svg>