<?xml version="1.0" standalone="no"?><!DOCTYPE svg PUBLIC "-//W3C//DTD SVG 1.1//EN" "http://www.w3.org/Graphics/SVG/1.1/DTD/svg11.dtd"><svg class="icon" width="200px" height="200.00px" viewBox="0 0 1024 1024" version="1.1" xmlns="http://www.w3.org/2000/svg"><path d="M137.902 0c-27.796 0.701-50.16 23.101-50.862 50.934v917.412a48.707 48.707 0 0 0 15.273 35.635 49.971 49.971 0 0 0 35.59 15.298H884.24a48.64 48.64 0 0 0 35.589-15.293 50.37 50.37 0 0 0 15.273-35.64v-679.63L646.728 0H137.902z" fill="#6CCBFF" /><path d="M935.102 288.717H697.657c-27.823-0.666-50.228-23.076-50.93-50.934V0l288.375 288.717z" fill="#C4EAFF" /><path d="M299.06 390.65h84.787v84.911h-84.788v-84.905z m169.579 0h84.797v84.911h-84.802v-84.905z m169.656 0h84.787v84.911h-84.787v-84.905z m-254.448 84.911h84.792v84.915h-84.787v-84.915z m169.59 0h84.858v84.915h-84.859v-84.915z m-169.59 169.825h84.792v84.977h-84.787v-84.977z m169.59 0h84.858v84.977h-84.859v-84.977z m-254.383-84.91h84.793v84.91h-84.788v-84.91z m169.585 0h84.797v84.91h-84.802v-84.91z m169.656 0h84.787v84.91h-84.787v-84.91z m-339.24 169.887h84.792v85.043h-84.788v-85.043z m169.584 0h84.797v85.043h-84.802v-85.043z m169.656 0h84.787v85.043h-84.787v-85.043z" fill="#FFFFFF" /></svg>