<?xml version="1.0" standalone="no"?><!DOCTYPE svg PUBLIC "-//W3C//DTD SVG 1.1//EN" "http://www.w3.org/Graphics/SVG/1.1/DTD/svg11.dtd"><svg class="icon" width="200px" height="200.00px" viewBox="0 0 1024 1024" version="1.1" xmlns="http://www.w3.org/2000/svg"><path d="M594.944 0l335.124 341.32v563.2c0 65.996-52.5 119.48-117.294 119.48H209.546c-64.793 0-117.299-53.53-117.299-119.48V119.48C92.252 53.484 144.757 0 209.551 0h385.393z" fill="#FD7541" /><path d="M930.068 341.32H718.152c-64.748 0-123.208-59.49-123.208-125.492V0l335.124 341.32z" fill="#FFFFFF" fill-opacity=".4" /><path d="M415.278 451.446c-85.832 0-155.371 70.84-155.371 158.208 0 87.362 69.585 158.208 155.371 158.208 85.78 0 155.366-70.846 155.366-158.26h-155.36V451.447z" fill="#FFFFFF" opacity=".4" /><path d="M439.48 426.726v158.26H594.8c0-87.414-69.54-158.26-155.366-158.26h0.046z" fill="#FFFFFF" /></svg>