<?xml version="1.0" standalone="no"?><!DOCTYPE svg PUBLIC "-//W3C//DTD SVG 1.1//EN" "http://www.w3.org/Graphics/SVG/1.1/DTD/svg11.dtd"><svg class="icon" width="200px" height="200.00px" viewBox="0 0 1024 1024" version="1.1" xmlns="http://www.w3.org/2000/svg"><path d="M137.902 0c-27.796 0.701-50.16 23.101-50.862 50.934v917.412a48.707 48.707 0 0 0 15.273 35.635 49.971 49.971 0 0 0 35.59 15.298H884.24a48.64 48.64 0 0 0 35.589-15.293 50.37 50.37 0 0 0 15.273-35.64v-679.63L646.728 0H137.902z" fill="#6CCBFF" /><path d="M935.102 288.717H697.657c-27.823-0.666-50.228-23.076-50.93-50.934V0l288.375 288.717z" fill="#C4EAFF" /><path d="M354.166 542.787h89.042v144.358a17.475 17.475 0 0 0 16.998 17.019h101.73a17.475 17.475 0 0 0 16.998-17.019V542.787h89.037a7.373 7.373 0 0 0 7.639-5.12 9.251 9.251 0 0 0-1.726-9.309L522.957 383.867a19.108 19.108 0 0 0-11.883-5.12 15.396 15.396 0 0 0-11.89 5.12L348.264 528.225a7.588 7.588 0 0 0-1.726 9.308 8.102 8.102 0 0 0 7.634 5.12v0.134z m368.922 220.825H299.054a16.993 16.993 0 0 0-15.6 8.172 17.044 17.044 0 0 0 0 17.633 16.993 16.993 0 0 0 15.6 8.171h424.034A17.014 17.014 0 0 0 739.02 780.6a17.014 17.014 0 0 0-15.933-16.988z" fill="#FFFFFF" /></svg>