<?xml version="1.0" standalone="no"?><!DOCTYPE svg PUBLIC "-//W3C//DTD SVG 1.1//EN" "http://www.w3.org/Graphics/SVG/1.1/DTD/svg11.dtd"><svg class="icon" width="200px" height="200.00px" viewBox="0 0 1024 1024" version="1.1" xmlns="http://www.w3.org/2000/svg"><path d="M137.902164 0.00045a48.572979 48.572979 0 0 0-35.588984 15.293993 53.964976 53.964976 0 0 0-15.272993 35.639985v917.411596a48.706979 48.706979 0 0 0 15.272993 35.639985 49.970978 49.970978 0 0 0 35.589984 15.292993h746.335672a48.639979 48.639979 0 0 0 35.589985-15.292993 50.369978 50.369978 0 0 0 15.272993-35.639985V288.717323L646.727941 0.00045H137.902164z" fill="#E5E5E5" /><path d="M935.101814 288.717323H697.655918c-27.821988-0.666-50.226978-23.07599-50.927977-50.933977V0.00045l288.373873 288.716873z" fill="#CCCCCC" /><path d="M248.126116 365.18429h220.517903a25.517989 25.517989 0 0 0 24.191989-25.496989 25.517989 25.517989 0 0 0-24.196989-25.502989H248.126116a25.517989 25.517989 0 0 0-24.196989 25.497989 25.517989 25.517989 0 0 0 24.196989 25.496989z m0 169.824925H773.949885a25.445989 25.445989 0 0 0 25.429989-25.465989 25.445989 25.445989 0 0 0-25.429989-25.466989H248.126116a25.445989 25.445989 0 0 0-25.430989 25.466989 25.445989 25.445989 0 0 0 25.429989 25.465989zM773.949885 653.896163H248.126116a25.517989 25.517989 0 0 0-24.196989 25.496988 25.517989 25.517989 0 0 0 24.196989 25.502989H773.949885a25.517989 25.517989 0 0 0 24.196989-25.496989A25.517989 25.517989 0 0 0 773.949885 653.900163z" fill="#FFFFFF" /></svg>