<?xml version="1.0" standalone="no"?><!DOCTYPE svg PUBLIC "-//W3C//DTD SVG 1.1//EN" "http://www.w3.org/Graphics/SVG/1.1/DTD/svg11.dtd"><svg class="icon" width="200px" height="200.00px" viewBox="0 0 1024 1024" version="1.1" xmlns="http://www.w3.org/2000/svg"><path d="M137.902164 0.00045a48.572979 48.572979 0 0 0-35.588984 15.293993 53.964976 53.964976 0 0 0-15.272993 35.639985v917.411596a48.706979 48.706979 0 0 0 15.272993 35.639985 49.970978 49.970978 0 0 0 35.589984 15.292993h746.335672a48.639979 48.639979 0 0 0 35.589985-15.292993 50.369978 50.369978 0 0 0 15.272993-35.639985V288.717323L646.727941 0.00045H137.902164z" fill="#5ACC9B" /><path d="M935.101814 288.717323H697.655918c-27.821988-0.666-50.226978-23.07599-50.927977-50.933977V0.00045l288.373873 288.716873z" fill="#BDEBD7" /><path d="M499.185006 692.992145a19.045992 19.045992 0 0 0 11.888994 5.058998 16.854993 16.854993 0 0 0 11.877995-5.053998L673.883929 548.640209a7.919997 7.919997 0 0 0 1.725999-9.374996 8.232996 8.232996 0 0 0-7.633997-5.119998h-89.04196V389.852279a17.340992 17.340992 0 0 0-16.997993-16.956993h-101.729955a17.340992 17.340992 0 0 0-16.997993 16.956993v144.291936H354.170069a7.439997 7.439997 0 0 0-7.638996 5.119998 9.251996 9.251996 0 0 0 1.725999 9.369996l150.926934 144.362936z m223.896901 70.486969H299.060094a16.992993 16.992993 0 0 0-15.600994 8.171997 17.043993 17.043993 0 0 0 0 17.632992 16.992993 16.992993 0 0 0 15.599994 8.170997h424.033813a17.013993 17.013993 0 0 0 15.932993-16.987993 17.013993 17.013993 0 0 0-15.932993-16.987993z" fill="#FFFFFF" /></svg>