<?xml version="1.0" standalone="no"?><!DOCTYPE svg PUBLIC "-//W3C//DTD SVG 1.1//EN" "http://www.w3.org/Graphics/SVG/1.1/DTD/svg11.dtd"><svg class="icon" width="200px" height="200.00px" viewBox="0 0 1024 1024" version="1.1" xmlns="http://www.w3.org/2000/svg"><path d="M594.944 0l335.124 341.32v563.2c0 65.996-52.5 119.48-117.294 119.48H209.546c-64.793 0-117.299-53.53-117.299-119.48V119.48C92.252 53.484 144.757 0 209.551 0h385.393z" fill="#1ABF74" /><path d="M930.068 341.32H718.152c-64.748 0-123.208-59.49-123.208-125.492V0l335.124 341.32z" fill="#FFFFFF" fill-opacity=".4" /><path d="M594.616 426.824v0.23h0.092V768h-27.873v-0.051h-83.968 0.046-83.143 0.05-139.919v-28.39l0.052-0.047v-85.826h-0.052V625.29h0.052v-85.826h-0.098v-28.396l0.093-0.046v-55.854h-0.093v-28.39h334.71l0.046 0.046zM371.988 653.686h-84.106v85.826h84.106v-85.826z m83.083 0h-55.245v85.826h55.199v-85.826h0.05z m111.76 0h-83.923v85.826h83.876v-85.826h0.046zM371.987 539.459h-84.106v85.831h84.106v-85.826z m83.083 0h-55.245v85.831h55.199v-85.826h0.05z m111.76 0h-83.923v85.831h83.876v-85.826h0.046z m0-84.245H287.881v55.808h278.902v-55.854l0.046 0.051z" fill="#FFFFFF" /></svg>