<?xml version="1.0" standalone="no"?><!DOCTYPE svg PUBLIC "-//W3C//DTD SVG 1.1//EN" "http://www.w3.org/Graphics/SVG/1.1/DTD/svg11.dtd"><svg class="icon" width="200px" height="200.00px" viewBox="0 0 1024 1024" version="1.1" xmlns="http://www.w3.org/2000/svg"><path d="M137.902164 0.00045a48.572979 48.572979 0 0 0-35.588984 15.293993 53.964976 53.964976 0 0 0-15.272993 35.639985v917.411596a48.706979 48.706979 0 0 0 15.272993 35.639985 49.970978 49.970978 0 0 0 35.589984 15.292993h746.335672a48.639979 48.639979 0 0 0 35.589985-15.292993 50.369978 50.369978 0 0 0 15.272993-35.639985V288.717323L646.727941 0.00045H137.902164z" fill="#5ACC9B" /><path d="M935.101814 288.717323H697.655918c-27.821988-0.666-50.226978-23.07599-50.927977-50.933977V0.00045l288.373873 288.716873z" fill="#BDEBD7" /><path d="M503.434004 649.641165C503.434004 729.370129 567.976975 794.000101 647.58794 794.000101c79.615965 0 144.153937-64.629972 144.153937-144.357936 0-79.722965-64.537972-144.357937-144.153937-144.357937S503.434004 569.9182 503.434004 649.640165z" fill="#9CE0C3" /><path d="M367.714063 598.707187c-0.026 58.419974 35.091985 111.103951 88.984961 133.478941a144.076937 144.076937 0 0 0 157.189931-31.262986 144.572936 144.572936 0 0 0 31.292986-157.403931c-22.31799-53.974976-74.905967-89.169961-133.247941-89.169961a144.050937 144.050937 0 0 0-101.974955 42.259982 144.459937 144.459937 0 0 0-42.244982 102.097955z" fill="#CDF0E1" /><path d="M232.259123 539.264213c0 79.723965 64.536972 144.358937 144.152937 144.358937s144.153937-64.634972 144.153936-144.358937c0-79.727965-64.537972-144.357937-144.153936-144.357937a143.984937 143.984937 0 0 0-101.953956 42.259982 144.393937 144.393937 0 0 0-42.199981 102.092955z" fill="#FFFFFF" /></svg>